<!-- icon666.com - MILLIONS vector ICONS FREE --><svg xmlns="http://www.w3.org/2000/svg" id="Layer_1" data-name="Layer 1" viewBox="0 0 24 24"><path d="M1.58594,17.28027A.50071.50071,0,0,0,2,17.5H6a.50024.50024,0,0,0,.46436-.31445L7.33838,15H9.80615L7.52588,21.8418A.49985.49985,0,0,0,8,22.5a.4866.4866,0,0,0,.12109-.01514l4-1a.4989.4989,0,0,0,.32862-.26611L15.479,15h2.82862a4.4554,4.4554,0,0,0,4.15674-2.81445.5024.5024,0,0,0,0-.3711A4.45606,4.45606,0,0,0,18.30713,9H15.479L12.44971,2.78125a.4989.4989,0,0,0-.32862-.26611l-4-1a.49962.49962,0,0,0-.59521.64306L9.80615,9H7.33838l-.874-2.18555A.50024.50024,0,0,0,6,6.5H2a.50007.50007,0,0,0-.46436.68555L3.46143,12,1.53564,16.81445A.5006.5006,0,0,0,1.58594,17.28027Zm2.87842-5.09472a.5024.5024,0,0,0,0-.3711L2.73828,7.5H5.66162l.874,2.18555A.50024.50024,0,0,0,7,10h3.5a.49952.49952,0,0,0,.47412-.6582L8.76221,2.70605l2.89013.72266,3.06446,6.29A.49982.49982,0,0,0,15.1665,10h3.14063a3.45871,3.45871,0,0,1,3.14795,2,3.45853,3.45853,0,0,1-3.14746,2H15.1665a.49982.49982,0,0,0-.4497.28125l-3.06446,6.29L8.76221,21.294l2.21191-6.63575A.49952.49952,0,0,0,10.5,14H7a.50024.50024,0,0,0-.46436.31445L5.66162,16.5H2.73828Z" fill="#000000" style="fill: rgb(152, 150, 150);"></path></svg>